<svg width="395" height="352" viewBox="0 0 395 352" fill="none" xmlns="http://www.w3.org/2000/svg">
<path fill-rule="evenodd" clip-rule="evenodd" d="M291.867 3.75389C301.467 8.15388 307.733 14.1539 312.533 23.4872C315.867 30.4206 316.533 33.2206 316.533 41.3539C316.533 51.6206 313.333 62.5539 309.2 67.3539C307.067 69.6206 308 71.4872 325.467 101.754L343.867 133.754L348.667 133.087C355.2 132.021 368.933 135.754 375.6 140.421C383.6 145.887 386.533 149.487 390.667 158.554C400.267 179.354 391.467 203.621 370.533 214.021C363.6 217.354 360.533 218.154 352.933 218.154H343.733L325.733 249.487L307.6 280.821L312.133 289.754C316.133 297.487 316.667 299.887 316.8 308.821C316.8 326.554 308.667 339.754 292.933 347.487C282.533 352.554 270.8 353.221 259.6 349.487C251.067 346.554 240.8 337.621 236.4 329.354L233.2 323.221H196.933H160.8L157.867 329.221C154.133 337.087 144.8 345.087 135.333 348.687C125.067 352.554 110.667 351.754 101.2 346.954C87.4667 339.754 79.2 327.221 78.1333 311.887C77.4667 301.087 79.2 293.621 83.8667 286.687L87.2 281.621L68.9333 250.021L50.5333 218.287L41.6 218.154C25.2 218.021 11.7334 209.487 4.26668 194.154C0.666672 186.821 0 183.887 0 175.887C0 152.687 18 134.287 41.6 133.354L50.5333 132.954L68.9333 101.487L87.3333 70.1539L84 65.2206C77.3333 55.4872 76.4 38.5539 81.8667 26.2872C90.9333 5.62054 117.6 -4.51279 138.133 4.82054C146.667 8.82054 155.867 17.3539 158.667 24.0206L160.533 28.5539H196.933H233.333L235.6 23.8872C245.467 3.35388 270.8 -5.71279 291.867 3.75389ZM108 36.4205C109.467 33.8872 112.133 31.0872 114 30.2872C125.867 24.1539 138.533 38.0206 131.333 49.3539C125.2 59.2205 111.2 57.4872 107.333 46.4206C105.6 41.3539 105.6 40.5539 108 36.4205ZM265.2 32.9539C259.067 39.0872 258.8 45.6206 264.4 51.2206C269.333 56.2872 273.733 57.2206 279.733 54.6872C285.2 52.4206 289.333 45.0872 288 39.7539C286.533 34.1539 281.6 29.7539 275.6 28.9539C270.4 28.2872 269.467 28.6872 265.2 32.9539ZM153.867 70.4206C153.867 69.6206 155.467 66.1539 157.333 62.6873L160.8 56.5539H197.2H233.6L237.333 63.7539L240.933 70.9539L225.733 97.2206L210.533 123.487H197.2H183.867L168.933 97.7539C160.667 83.4873 153.867 71.2206 153.867 70.4206ZM110.133 88.8206C108.667 91.2206 100.4 105.487 91.8667 120.287L76.1333 147.487L80 154.687L83.8667 161.887H114.667H145.467L147.867 155.754C149.067 152.421 152.133 147.221 154.4 144.021L158.8 138.421L143.333 111.487L127.867 84.5539H120.267C113.2 84.5539 112.533 84.8206 110.133 88.8206ZM235.6 138.421L251.067 111.487L266.533 84.5539L274.4 84.8206L282.267 85.2205L300.267 116.421L318.267 147.621L314.4 154.687L310.533 161.887H279.6H248.8L247.2 157.354C246.4 154.821 243.467 149.621 240.667 145.621L235.6 138.421ZM189.467 153.221C172.267 159.221 167.6 179.887 180.4 192.687C191.467 203.754 208.533 202.021 217.333 188.954C226.133 175.887 218.933 156.954 203.867 152.687C197.2 150.821 195.733 150.954 189.467 153.221ZM30 179.887C28.2667 173.487 30.4 167.754 35.7333 164.421C44.4 158.954 56.5333 165.621 56.5333 175.887C56.5333 182.954 50.4 189.221 43.6 189.221C36.6667 189.221 31.6 185.754 30 179.887ZM346.4 163.221C338 166.554 335.467 177.487 341.333 184.421C349.6 194.287 364.4 188.954 364.533 176.154C364.533 169.621 362.8 166.421 357.867 163.887C353.6 161.621 350.667 161.487 346.4 163.221ZM76.1333 204.287L80 197.087L83.8667 189.887H114.8H145.6L147.2 194.421C148 196.954 150.933 202.154 153.6 206.154L158.667 213.221L143.2 239.887L127.867 266.554H120H112.267L94.1333 235.487L76.1333 204.287ZM246.533 195.487C245.333 198.687 242.267 204.021 239.867 207.354L235.6 213.354L251.067 240.154L266.533 266.954L274.4 266.821L282.133 266.554L300.133 235.354L318.267 204.154L314.4 196.954L310.533 189.887H279.733H248.8L246.533 195.487ZM180.495 233.771L181.2 232.554L184.133 227.887L197.333 228.154L210.533 228.287L225.733 254.554L240.933 280.687L237.2 288.021L233.6 295.221H197.2H160.8L157.067 288.021L153.467 280.821L165.867 258.954C172.011 248.437 178.156 237.815 180.495 233.771ZM114.133 297.221C106 300.821 104.133 311.887 110.667 318.421C115.067 322.687 120.133 323.487 125.867 320.821C141.867 313.087 130.4 289.887 114.133 297.221ZM260.533 309.487C260.533 304.421 264.533 298.287 269.067 296.554C273.067 294.954 274.667 294.954 280 297.221C293.333 302.821 288.133 323.221 273.467 323.221C267.733 323.221 260.533 315.487 260.533 309.487Z" fill="#4172F1"/>
</svg>
